<?xml version="1.0" encoding="iso-8859-1"?>
<!-- Uploaded to: SVG Repo, www.svgrepo.com, Generator: SVG Repo Mixer Tools -->
<!DOCTYPE svg PUBLIC "-//W3C//DTD SVG 1.1//EN" "http://www.w3.org/Graphics/SVG/1.1/DTD/svg11.dtd">
<svg fill="#000000" height="800px" width="800px" version="1.1" id="Capa_1" xmlns="http://www.w3.org/2000/svg" xmlns:xlink="http://www.w3.org/1999/xlink" 
	 viewBox="0 0 383.594 383.594" xml:space="preserve">
<path d="M375.701,201.29c0-1.98-1.078-3.693-2.668-4.629c6.516-5.986,10.561-12.909,10.561-22.79
	c0-29.125-35.504-34.861-35.504-48.258c0,13.397-35.504,19.133-35.504,48.258c0,9.88,4.044,16.803,10.561,22.789
	c-1.59,0.936-2.668,2.648-2.668,4.63c0,2.875,2.253,5.201,5.09,5.355v28.777c-2.837,0.153-5.09,2.48-5.09,5.355
	c0,2.876,2.253,5.205,5.09,5.358v15.025h-66.557v-21.915h-7.639v-15.089h-0.633c13.466-13.113,21.715-28.355,21.715-49.633
	c0-60.061-66.449-76.349-78.719-101.6c2.155,0.536,4.375,0.826,6.614,0.826c8.364,0,16.176-3.724,21.432-10.217
	c1.828-2.263,3.285-4.783,4.329-7.492l0.162-0.421l-0.379,0.246c-4.421,2.865-9.556,4.38-14.849,4.38
	c-6.209,0-12.294-2.157-17.136-6.073c-9.198-7.449-12.541-19.877-8.316-30.927l0.161-0.42l-0.378,0.245
	c-2.43,1.577-4.592,3.526-6.425,5.792c-4.631,5.72-6.758,12.9-5.987,20.219c0.77,7.319,4.347,13.9,10.068,18.53
	c2.213,1.791,4.693,3.198,7.318,4.223c-10.849,25.883-79.213,41.769-79.213,102.688c0,21.277,8.246,36.52,21.713,49.633h-0.633
	v15.089h-7.637v21.915H58.021v-15.092c2.84-0.153,5.1-2.481,5.1-5.355c0-2.875-2.26-5.203-5.1-5.355v-28.779
	c2.84-0.153,5.1-2.48,5.1-5.355c0-1.979-1.082-3.691-2.675-4.626c6.514-5.984,10.561-12.907,10.561-22.788
	c0-29.125-35.508-34.865-35.508-48.263c0,13.397-35.5,19.138-35.5,48.263c0,9.882,4.047,16.805,10.563,22.788
	c-1.592,0.936-2.672,2.647-2.672,4.626c0,2.874,2.258,5.201,5.094,5.355v28.779c-2.836,0.154-5.094,2.481-5.094,5.355
	c0,2.873,2.258,5.201,5.094,5.355v15.092h-0.031v99.607H57.18v-38.402c0-15.941,22.84-26.385,22.84-26.385
	s22.838,10.443,22.838,26.385v38.402h56.912v-54.822c0-22.352,32.027-36.995,32.027-36.995s32.025,14.644,32.025,36.995v54.822
	h56.912v-38.402c0-15.941,22.838-26.385,22.838-26.385s22.84,10.443,22.84,26.385v38.402h44.227V261.16h-0.029v-15.025
	c2.836-0.152,5.092-2.481,5.092-5.358c0-2.875-2.256-5.203-5.092-5.355v-28.776C373.445,206.493,375.701,204.165,375.701,201.29z"/>
</svg>